<svg width="82" height="84" viewBox="0 0 82 84" fill="none" xmlns="http://www.w3.org/2000/svg">
<path d="M73.2228 11.4872C75.6269 10.853 77.7147 13.2507 76.756 15.5447L67.5937 37.469C67.2134 38.3792 67.3047 39.4182 67.8381 40.248L80.6936 60.2473C82.0377 62.3385 80.4013 65.0633 77.9238 64.8594L54.2482 62.9103C53.2637 62.8292 52.3024 63.238 51.6778 64.0033L36.658 82.4066C35.0857 84.3331 31.9868 83.6202 31.4144 81.2003L25.944 58.0747C25.7166 57.1136 25.0307 56.3259 24.11 55.9686L1.95624 47.3702C-0.36195 46.4705 -0.641954 43.303 1.48244 42.0105L21.7762 29.6639C22.6201 29.1505 23.1572 28.2545 23.2123 27.2683L24.5372 3.54955C24.6758 1.06753 27.5998 -0.17866 29.4863 1.44027L47.528 16.9236C48.2766 17.566 49.2931 17.7994 50.2469 17.5478L73.2228 11.4872Z" fill="url(#paint0_linear_431_2)"/>
<defs>
<linearGradient id="paint0_linear_431_2" x1="79.0995" y1="9.93704" x2="14.5512" y2="66.1436" gradientUnits="userSpaceOnUse">
<stop stop-color="#984BED"/>
<stop offset="1" stop-color="#5551C1"/>
</linearGradient>
</defs>
</svg>
